HIERARCHY
ROOT Hips
{
	OFFSET 0.000000 0.000000 0.000000
	CHANNELS 6 Xposition Yposition Zposition Xrotation Yrotation Zrotation
	JOINT LeftUpLeg_virtual
	{
		OFFSET 0.000000 0.000000 0.000000
		CHANNELS 3 Xrotation Yrotation Zrotation
		JOINT LeftUpLeg
		{
			OFFSET 11.394100 -6.187798 -0.413800
			CHANNELS 3 Xrotation Yrotation Zrotation
			JOINT LeftLeg
			{
				OFFSET 0.430247 -32.302673 3.732800
				CHANNELS 3 Xrotation Yrotation Zrotation
				JOINT LeftFoot
				{
					OFFSET -0.430247 -48.264931 -6.423300
					CHANNELS 3 Xrotation Yrotation Zrotation
					JOINT LeftToeBase
					{
						OFFSET 4.230900 -16.068199 23.438400
						CHANNELS 3 Xrotation Yrotation Zrotation
						JOINT LeftToe_End
						{
							OFFSET 4.510700 0.695400 19.974600
							CHANNELS 3 Xrotation Yrotation Zrotation
							End Site
							{
								OFFSET 0 0 0
							}
						}
					}
				}
			}
		}
	}
	JOINT RightUpLeg_virtual
	{
		OFFSET 0.000000 0.000000 0.000000
		CHANNELS 3 Xrotation Yrotation Zrotation
		JOINT RightUpLeg
		{
			OFFSET -11.333700 -6.187798 -0.413800
			CHANNELS 3 Xrotation Yrotation Zrotation
			JOINT RightLeg
			{
				OFFSET -0.430392 -32.302628 3.733000
				CHANNELS 3 Xrotation Yrotation Zrotation
				JOINT RightFoot
				{
					OFFSET 0.430392 -48.264973 -6.423500
					CHANNELS 3 Xrotation Yrotation Zrotation
					JOINT RightToeBase
					{
						OFFSET -4.230900 -16.068199 23.438400
						CHANNELS 3 Xrotation Yrotation Zrotation
						JOINT RightToe_End
						{
							OFFSET -4.510700 0.695400 19.974600
							CHANNELS 3 Xrotation Yrotation Zrotation
							End Site
							{
								OFFSET 0 0 0
							}
						}
					}
				}
			}
		}
	}
	JOINT Spine_virtual
	{
		OFFSET 0.000000 0.000000 0.000000
		CHANNELS 3 Xrotation Yrotation Zrotation
		JOINT Spine
		{
			OFFSET -0.002400 12.777504 0.315300
			CHANNELS 3 Xrotation Yrotation Zrotation
			JOINT Spine1
			{
				OFFSET -0.002067 5.816869 0.032633
				CHANNELS 3 Xrotation Yrotation Zrotation
				JOINT Spine1_split
				{
					OFFSET -0.002067 5.816869 0.032633
					CHANNELS 3 Xrotation Yrotation Zrotation
					JOINT Spine2
					{
						OFFSET -0.002067 5.816869 0.032633
						CHANNELS 3 Xrotation Yrotation Zrotation
						JOINT Neck_virtual
						{
							OFFSET 0.000000 0.000000 0.000000
							CHANNELS 3 Xrotation Yrotation Zrotation
							JOINT Neck
							{
								OFFSET -0.003700 21.199493 -0.826900
								CHANNELS 3 Xrotation Yrotation Zrotation
								JOINT Head
								{
									OFFSET 0.000000 20.442200 4.834800
									CHANNELS 3 Xrotation Yrotation Zrotation
									JOINT HeadTop_End
									{
										OFFSET 0.000000 34.668396 4.968400
										CHANNELS 3 Xrotation Yrotation Zrotation
										End Site
										{
											OFFSET 0 0 0
										}
									}
								}
							}
						}
						JOINT LeftShoulder_virtual
						{
							OFFSET 0.000000 0.000000 0.000000
							CHANNELS 3 Xrotation Yrotation Zrotation
							JOINT LeftShoulder
							{
								OFFSET 3.288150 8.794197 -1.372250
								CHANNELS 3 Xrotation Yrotation Zrotation
								JOINT LeftShoulder_split
								{
									OFFSET 3.288150 8.794197 -1.372250
									CHANNELS 3 Xrotation Yrotation Zrotation
									JOINT LeftArm
									{
										OFFSET 11.953299 -2.279007 -0.146200
										CHANNELS 3 Xrotation Yrotation Zrotation
										JOINT LeftForeArm
										{
											OFFSET 18.448900 0.000000 0.000000
											CHANNELS 3 Xrotation Yrotation Zrotation
											JOINT LeftHand
											{
												OFFSET 29.527798 0.000000 0.000000
												CHANNELS 3 Xrotation Yrotation Zrotation
												End Site
												{
													OFFSET 0 0 0
												}
											}
										}
									}
								}
							}
						}
						JOINT RightShoulder_virtual
						{
							OFFSET 0.000000 0.000000 0.000000
							CHANNELS 3 Xrotation Yrotation Zrotation
							JOINT RightShoulder
							{
								OFFSET -3.249400 8.794197 -1.372250
								CHANNELS 3 Xrotation Yrotation Zrotation
								JOINT RightShoulder_split
								{
									OFFSET -3.249400 8.794197 -1.372250
									CHANNELS 3 Xrotation Yrotation Zrotation
									JOINT RightArm
									{
										OFFSET -11.953299 -2.279007 -0.146200
										CHANNELS 3 Xrotation Yrotation Zrotation
										JOINT RightForeArm
										{
											OFFSET -18.448900 0.000000 0.000000
											CHANNELS 3 Xrotation Yrotation Zrotation
											JOINT RightHand
											{
												OFFSET -29.527802 0.000000 0.000000
												CHANNELS 3 Xrotation Yrotation Zrotation
												End Site
												{
													OFFSET 0 0 0
												}
											}
										}
									}
								}
							}
						}
					}
				}
			}
		}
	}
}
MOTION
Frames: 5
Frame Time: 0.03333333
6.582600 15.972984 180.572525 0.000000 0.000000 0.000000 -98.529037 -0.509513 -0.056202 -58.114159 -36.034193 19.188829 98.376123 -4.872087 6.651620 25.379757 -4.124986 -11.929222 -8.343718 0.000014 0.000006 0.000000 0.000000 0.000000 -98.529037 -0.509513 -0.056202 -63.035864 11.593903 -15.078184 96.335918 5.729812 -4.450932 20.204637 3.178970 10.074695 -1.722746 -0.000007 0.000007 0.000000 0.000000 0.000000 -98.529037 -0.509513 -0.056202 3.366112 -0.632951 0.441079 1.000911 -0.401115 0.100993 0.000000 0.000000 0.000000 0.000000 0.000000 0.000000 1.005984 -0.397106 0.117013 10.870324 -0.634210 0.005624 19.676349 -3.184813 -0.060909 0.000000 0.000000 0.000000 1.005984 -0.397106 0.117013 -0.058158 -17.068289 -5.567244 0.000000 0.000000 0.000000 63.447820 -14.953005 -43.933921 0.000010 -33.235110 0.000003 0.000000 0.000000 0.000000 1.005984 -0.397106 0.117013 -2.398653 8.004974 13.296222 0.000000 0.000000 0.000000 81.984735 25.035411 20.086780 0.000000 33.035316 0.000000 0.000000 0.000000 0.000000 
6.741355 15.848656 180.439270 0.000000 0.000000 0.000000 -98.552615 -0.192402 0.007416 -58.985124 -35.891661 18.471731 98.456146 -4.305950 6.739384 24.991848 -4.126112 -11.867110 -8.456765 0.000005 0.000007 0.000000 0.000000 0.000000 -98.552615 -0.192402 0.007416 -61.844262 10.461490 -16.015935 94.686858 4.767597 -4.498778 18.039935 3.480183 10.890323 -1.799674 -0.000004 0.000007 0.000000 0.000000 0.000000 -98.552615 -0.192402 0.007416 3.640342 -0.638165 0.464259 0.996815 -0.409160 0.102272 0.000000 0.000000 0.000000 0.000000 0.000000 0.000000 1.002258 -0.404640 0.123115 11.869383 -0.692220 0.070575 20.968600 -3.405664 -0.139370 0.000000 0.000000 0.000000 1.002258 -0.404640 0.123115 -0.224985 -17.471188 -6.131981 0.000000 0.000000 0.000000 63.391457 -14.457677 -43.758010 0.000005 -33.190355 0.000012 0.000000 0.000000 0.000000 1.002258 -0.404640 0.123115 -2.454923 7.297290 14.160514 0.000000 0.000000 0.000000 82.050612 23.802205 19.508781 -0.000004 33.367397 0.000005 0.000000 0.000000 0.000000 
6.883424 15.717567 180.274902 0.000000 0.000000 0.000000 -98.528354 0.136382 0.151773 -59.944424 -35.655777 17.804640 98.410431 -3.693880 6.798659 25.032353 -4.141136 -11.904874 -8.497721 -0.000002 -0.000001 0.000000 0.000000 0.000000 -98.528354 0.136382 0.151773 -60.330569 9.134115 -16.890604 92.704266 4.007103 -4.576990 15.639298 3.784961 11.955391 -1.854850 0.000010 0.000006 0.000000 0.000000 0.000000 -98.528354 0.136382 0.151773 4.140179 -0.619012 0.407142 1.137655 -0.405698 0.070828 0.000000 0.000000 0.000000 0.000000 0.000000 0.000000 1.143166 -0.402001 0.095220 12.729188 -0.700866 0.120165 22.078025 -3.388851 -0.214323 0.000000 0.000000 0.000000 1.143166 -0.402001 0.095220 -0.154405 -16.831184 -6.895302 0.000000 0.000000 0.000000 63.080540 -13.982378 -42.252868 0.000003 -33.293791 -0.000002 0.000000 0.000000 0.000000 1.143166 -0.402001 0.095220 -2.516759 6.886645 15.038905 0.000000 0.000000 0.000000 80.629154 22.829692 19.944858 -0.000004 32.748349 0.000004 0.000000 0.000000 0.000000 
6.989611 15.572601 180.091110 0.000000 0.000000 0.000000 -98.545361 0.399817 0.356115 -60.887653 -35.238606 17.254485 98.406401 -3.204075 6.782552 25.169058 -4.094543 -11.697122 -8.472778 0.000001 0.000012 0.000000 0.000000 0.000000 -98.545361 0.399817 0.356115 -58.421586 7.576265 -17.833248 90.308283 3.628124 -4.572488 12.957585 4.090580 13.451965 -1.824266 -0.000012 0.000002 0.000000 0.000000 0.000000 -98.545361 0.399817 0.356115 4.650221 -0.650242 0.286485 1.387997 -0.425766 0.016742 0.000000 0.000000 0.000000 0.000000 0.000000 0.000000 1.393695 -0.423227 0.044398 13.294723 -0.660562 0.148635 23.556810 -3.182666 -0.448013 0.000000 0.000000 0.000000 1.393695 -0.423227 0.044398 0.009508 -15.933918 -7.745201 0.000000 0.000000 0.000000 62.583179 -13.462223 -40.495338 0.000004 -33.289314 0.000006 0.000000 0.000000 0.000000 1.393695 -0.423227 0.044398 -2.620606 7.110671 15.598113 0.000000 0.000000 0.000000 78.640961 22.506889 21.021519 0.000006 31.831878 -0.000005 0.000000 0.000000 0.000000 
7.078497 15.410736 179.918030 0.000000 0.000000 0.000000 -98.579943 0.628208 0.579126 -61.877744 -34.664658 16.721859 98.453571 -2.725860 6.735767 25.419259 -4.024032 -11.301082 -8.425566 -0.000002 0.000000 0.000000 0.000000 0.000000 -98.579943 0.628208 0.579126 -56.056944 5.756775 -18.966356 87.404237 3.653954 -4.386852 9.757950 4.335411 15.634209 -1.686502 -0.000017 0.000010 0.000000 0.000000 0.000000 -98.579943 0.628208 0.579126 5.121179 -0.787998 0.182647 1.701098 -0.498171 -0.028546 0.000000 0.000000 0.000000 0.000000 0.000000 0.000000 1.707513 -0.495206 0.004678 13.630988 -0.584191 0.081718 25.205476 -2.993143 -0.774206 0.000000 0.000000 0.000000 1.707513 -0.495206 0.004678 0.254415 -14.847926 -8.640253 0.000000 0.000000 0.000000 61.904381 -13.056667 -38.704414 -0.000006 -33.055329 -0.000006 0.000000 0.000000 0.000000 1.707513 -0.495206 0.004678 -2.757259 7.700492 15.826412 0.000000 0.000000 0.000000 76.609642 22.456212 22.250204 0.000003 31.483293 -0.000004 0.000000 0.000000 0.000000 
